<svg xmlns="http://www.w3.org/2000/svg" xmlns:xlink="http://www.w3.org/1999/xlink" width="193" height="64" viewBox="0 0 193 64">
  <defs>
    <filter id="Rectángulo_43" x="0" y="0" width="193" height="64" filterUnits="userSpaceOnUse">
      <feOffset dy="3" input="SourceAlpha"/>
      <feGaussianBlur stdDeviation="3" result="blur"/>
      <feFlood flood-color="#add0fc"/>
      <feComposite operator="in" in2="blur"/>
      <feComposite in="SourceGraphic"/>
    </filter>
    <clipPath id="clip-path">
      <rect id="Rectángulo_1302" data-name="Rectángulo 1302" width="129.38" height="25.223" fill="none"/>
    </clipPath>
  </defs>
  <g id="Grupo_1576" data-name="Grupo 1576" transform="translate(-1238 -2756)">
    <g id="Grupo_1559" data-name="Grupo 1559" transform="translate(1247 2762.172)">
      <g transform="matrix(1, 0, 0, 1, -9, -6.17)" filter="url(#Rectángulo_43)">
        <rect id="Rectángulo_43-2" data-name="Rectángulo 43" width="175" height="46" rx="10" transform="translate(9 6)" fill="#f4f8fd"/>
      </g>
    </g>
    <g id="Grupo_1575" data-name="Grupo 1575" transform="translate(1270.31 2772.389)">
      <g id="Grupo_1574" data-name="Grupo 1574" transform="translate(0 0)" clip-path="url(#clip-path)">
        <path id="Trazado_1917" data-name="Trazado 1917" d="M16.6,6.646,18.226,5.2,13.619.589A1.291,1.291,0,0,0,11.742.333c-.938.853-11.09,11-11.09,11A1.246,1.246,0,0,0,.4,13.3C1.42,14.409,11.742,24.731,11.742,24.731a1.112,1.112,0,0,0,1.706,0c.768-.938,11.09-11.26,11.09-11.26s1.109-.853-.171-2.133c-1.28-1.365-3.412-3.5-3.412-3.5l-1.621,1.45,2.3,2.474a1,1,0,0,1,.085,1.621c-.938.853-8.019,7.934-8.019,7.934a1.4,1.4,0,0,1-2.3.085c-1.28-1.365-7.763-7.848-7.763-7.848a1.1,1.1,0,0,1-.085-1.877c1.109-1.024,8.1-8.1,8.1-8.1a1.4,1.4,0,0,1,1.962.171,38.972,38.972,0,0,0,2.986,2.9" transform="translate(0 -0.002)" fill="#37539d"/>
        <path id="Trazado_1918" data-name="Trazado 1918" d="M23.022,18.587,21.4,20.038l4.607,4.607a1.291,1.291,0,0,0,1.877.256c.938-.853,11.09-11,11.09-11a1.246,1.246,0,0,0,.256-1.962C38.121,10.739,27.884.417,27.884.417a1.112,1.112,0,0,0-1.706,0c-.768.938-11.09,11.26-11.09,11.26s-1.109.853.171,2.133c1.28,1.365,3.412,3.5,3.412,3.5l1.536-1.45-2.218-2.389a1,1,0,0,1-.085-1.621c.938-.853,8.019-7.934,8.019-7.934a1.4,1.4,0,0,1,2.3-.085c1.28,1.365,7.763,7.848,7.763,7.848a1.1,1.1,0,0,1,.085,1.877c-1.109,1.024-8.1,8.1-8.1,8.1a1.4,1.4,0,0,1-1.962-.171c-.938-1.024-2.986-2.9-2.986-2.9" transform="translate(-2.151 0)" fill="#969697"/>
        <path id="Trazado_1919" data-name="Trazado 1919" d="M54.99,6.575a3.821,3.821,0,0,1-2.559.768H50.3v3.668H48.165V.689H52.6a3.892,3.892,0,0,1,2.474.768,3.148,3.148,0,0,1,.938,2.474A4.016,4.016,0,0,1,54.99,6.575M53.283,2.822a1.9,1.9,0,0,0-1.109-.341H50.212V5.466h1.962a1.448,1.448,0,0,0,1.109-.341,1.547,1.547,0,0,0,.427-1.194,1.31,1.31,0,0,0-.427-1.109" transform="translate(-7.077 -0.101)" fill="#37539d"/>
        <path id="Trazado_1920" data-name="Trazado 1920" d="M66.64,10.014a4.6,4.6,0,0,1-3.412,1.194A4.522,4.522,0,0,1,59.9,10.014a5.677,5.677,0,0,1-1.536-4.265A5.549,5.549,0,0,1,59.9,1.483,4.522,4.522,0,0,1,63.227.289,4.88,4.88,0,0,1,66.64,1.483a5.549,5.549,0,0,1,1.536,4.265,5,5,0,0,1-1.536,4.265M65.36,8.478a4.07,4.07,0,0,0,.768-2.645,3.915,3.915,0,0,0-.768-2.645,2.7,2.7,0,0,0-4.095,0A4.07,4.07,0,0,0,60.5,5.834a3.915,3.915,0,0,0,.768,2.645,2.7,2.7,0,0,0,4.095,0" transform="translate(-8.576 -0.042)" fill="#37539d"/>
        <path id="Trazado_1921" data-name="Trazado 1921" d="M78.034,1.03a3.788,3.788,0,0,1,.938.682,1.77,1.77,0,0,1,.512.853,4.322,4.322,0,0,1,.171,1.109,3.014,3.014,0,0,1-.341,1.45,2.353,2.353,0,0,1-1.194,1.024A1.5,1.5,0,0,1,79.143,7,3.741,3.741,0,0,1,79.4,8.623V9.3a2.4,2.4,0,0,0,.085.938.987.987,0,0,0,.427.6v.171H77.522c-.085-.256-.085-.427-.171-.512a2.9,2.9,0,0,1-.085-.853V8.708c0-.682-.085-1.109-.341-1.28a1.543,1.543,0,0,0-1.194-.341H73.6v3.924H71.465V.689h4.948a5.2,5.2,0,0,1,1.621.341M73.6,2.48V5.21h2.3a3.182,3.182,0,0,0,1.024-.171c.427-.171.6-.6.6-1.194a1.347,1.347,0,0,0-.6-1.28c-.171,0-.512-.085-.938-.085Z" transform="translate(-10.501 -0.101)" fill="#37539d"/>
        <path id="Trazado_1922" data-name="Trazado 1922" d="M90.54.689V2.48H87.469v8.531H85.336V2.566H82.265V.689Z" transform="translate(-12.088 -0.101)" fill="#37539d"/>
        <path id="Trazado_1923" data-name="Trazado 1923" d="M94.648.689h2.389L100.7,11.011H98.4l-.682-2.133H93.965l-.682,2.133H91.065Zm-.085,6.4h2.645L95.842,3.078Z" transform="translate(-13.38 -0.101)" fill="#37539d"/>
        <path id="Trazado_1924" data-name="Trazado 1924" d="M103.565.789H110.9V2.58h-5.2V4.969h4.521V6.76H105.7v4.265h-2.133Z" transform="translate(-15.217 -0.116)" fill="#37539d"/>
        <path id="Trazado_1925" data-name="Trazado 1925" d="M121.24,10.014a4.6,4.6,0,0,1-3.412,1.194,4.522,4.522,0,0,1-3.327-1.194,5.677,5.677,0,0,1-1.536-4.265A5.549,5.549,0,0,1,114.5,1.483,4.522,4.522,0,0,1,117.827.289a4.88,4.88,0,0,1,3.412,1.194,5.549,5.549,0,0,1,1.536,4.265,5,5,0,0,1-1.536,4.265m-1.28-1.536a4.07,4.07,0,0,0,.768-2.645,3.915,3.915,0,0,0-.768-2.645,2.7,2.7,0,0,0-4.095,0,4.07,4.07,0,0,0-.768,2.645,3.915,3.915,0,0,0,.768,2.645,2.7,2.7,0,0,0,4.095,0" transform="translate(-16.598 -0.042)" fill="#37539d"/>
        <path id="Trazado_1926" data-name="Trazado 1926" d="M126.065.689H128.2V9.134h5.118v1.877h-7.251Z" transform="translate(-18.523 -0.101)" fill="#37539d"/>
        <rect id="Rectángulo_1300" data-name="Rectángulo 1300" width="2.133" height="10.322" transform="translate(115.817 0.588)" fill="#37539d"/>
        <path id="Trazado_1927" data-name="Trazado 1927" d="M148.025,10.014a4.6,4.6,0,0,1-3.412,1.194,4.88,4.88,0,0,1-3.412-1.194,5.677,5.677,0,0,1-1.536-4.265A5.549,5.549,0,0,1,141.2,1.483,4.6,4.6,0,0,1,144.613.289a4.88,4.88,0,0,1,3.412,1.194,5.549,5.549,0,0,1,1.536,4.265,5,5,0,0,1-1.536,4.265m-1.28-1.536a4.07,4.07,0,0,0,.768-2.645,3.915,3.915,0,0,0-.768-2.645,2.7,2.7,0,0,0-4.095,0,4.07,4.07,0,0,0-.768,2.645,3.915,3.915,0,0,0,.768,2.645,2.7,2.7,0,0,0,4.095,0" transform="translate(-20.521 -0.042)" fill="#37539d"/>
        <path id="Trazado_1928" data-name="Trazado 1928" d="M48.065,27.214V17.489H52.16c.256,0,.512.085.768.085a2.711,2.711,0,0,1,.768.256,1.857,1.857,0,0,1,.682.427,2.42,2.42,0,0,1,.768.853c.171.341.341.682.512,1.109.085.341.171.768.256,1.109A4.508,4.508,0,0,1,56,22.351a4.153,4.153,0,0,1-.085,1.024,4.282,4.282,0,0,1-.171,1.024,4.158,4.158,0,0,1-.341.938,2.656,2.656,0,0,1-.6.768,4.688,4.688,0,0,1-.768.6,2.555,2.555,0,0,1-.853.341,3.067,3.067,0,0,1-.938.171c-.341,0-.6.085-.938.085H48.065ZM49,26.446h2.218a5.632,5.632,0,0,0,1.194-.085,5.518,5.518,0,0,0,1.109-.341,1.505,1.505,0,0,0,.768-.682A9.306,9.306,0,0,0,54.8,24.4l.256-1.024a4.153,4.153,0,0,0,.085-1.024,5.247,5.247,0,0,0-.085-1.109L54.8,20.219a5.1,5.1,0,0,0-.512-.938,3.34,3.34,0,0,0-.853-.682,1.819,1.819,0,0,0-1.024-.256,5.632,5.632,0,0,0-1.194-.085H49v8.189" transform="translate(-7.062 -2.57)" fill="#66676a"/>
        <path id="Trazado_1929" data-name="Trazado 1929" d="M59.165,27.214V17.489h6.483v.768H60.1v3.5h5.033v.768H60.1v3.839h5.716v.768H59.165Z" transform="translate(-8.693 -2.57)" fill="#66676a"/>
        <path id="Trazado_1930" data-name="Trazado 1930" d="M73.5,18.683h0v8.531h-.938V17.489h1.024l5.63,8.531V17.489h.938v9.725H79.049Z" transform="translate(-10.662 -2.57)" fill="#66676a"/>
        <path id="Trazado_1931" data-name="Trazado 1931" d="M83.665,27.214V17.489h6.483v.768H84.6v3.5h5.033v.768H84.6v3.839h5.716v.768H83.665Z" transform="translate(-12.293 -2.57)" fill="#66676a"/>
        <path id="Trazado_1932" data-name="Trazado 1932" d="M97.086,22.89v-.768h4.18v5.033H100.5V25.449a3.921,3.921,0,0,1-1.365,1.365,6.19,6.19,0,0,1-1.024.427,5.163,5.163,0,0,1-1.28.171,3.819,3.819,0,0,1-1.706-.341,4.875,4.875,0,0,1-1.365-.938,4.175,4.175,0,0,1-.853-1.621,9.343,9.343,0,0,1-.341-2.3,7.272,7.272,0,0,1,.256-1.962,3.712,3.712,0,0,1,.853-1.621,3.866,3.866,0,0,1,1.45-1.109,4.739,4.739,0,0,1,1.962-.427,7.513,7.513,0,0,1,1.45.171,3.151,3.151,0,0,1,1.194.6,4.889,4.889,0,0,1,.938.938,3.769,3.769,0,0,1,.512,1.365h-.938a3.154,3.154,0,0,0-.427-.938,5.52,5.52,0,0,0-.682-.768,1.894,1.894,0,0,0-.938-.427,4.282,4.282,0,0,0-1.024-.171,3.05,3.05,0,0,0-1.621.341,2.97,2.97,0,0,0-1.109.938,4.526,4.526,0,0,0-.682,1.45,6.692,6.692,0,0,0-.171,1.877A4.83,4.83,0,0,0,93.845,24a4.521,4.521,0,0,0,.682,1.28,3.519,3.519,0,0,0,1.109.853,2.921,2.921,0,0,0,1.536.341,3.2,3.2,0,0,0,.853-.085c.256-.085.512-.171.853-.256l.768-.512a4.687,4.687,0,0,0,.6-.768,3.824,3.824,0,0,0,.427-1.962Z" transform="translate(-13.601 -2.511)" fill="#66676a"/>
        <path id="Trazado_1933" data-name="Trazado 1933" d="M104.565,22.307a7.272,7.272,0,0,1,.256-1.962,4.892,4.892,0,0,1,.853-1.621,3.866,3.866,0,0,1,1.45-1.109,4.739,4.739,0,0,1,1.962-.427,4.448,4.448,0,0,1,1.962.427,3.677,3.677,0,0,1,1.45,1.109,4.892,4.892,0,0,1,.853,1.621,7.465,7.465,0,0,1,.256,2.047,7.271,7.271,0,0,1-.256,1.962,4.892,4.892,0,0,1-.853,1.621,3.866,3.866,0,0,1-1.45,1.109,4.739,4.739,0,0,1-1.962.427,4.448,4.448,0,0,1-1.962-.427,3.677,3.677,0,0,1-1.45-1.109,4.892,4.892,0,0,1-.853-1.621,8.414,8.414,0,0,1-.256-2.047m4.521,4.351a3.248,3.248,0,0,0,1.621-.341,4.039,4.039,0,0,0,1.109-.938,6.8,6.8,0,0,0,.682-1.365,5.25,5.25,0,0,0,.171-1.621,5.671,5.671,0,0,0-.256-1.791,5.1,5.1,0,0,0-.682-1.365,3.519,3.519,0,0,0-1.109-.853,4.075,4.075,0,0,0-1.536-.341,3.248,3.248,0,0,0-1.621.341,4.039,4.039,0,0,0-1.109.938,6.8,6.8,0,0,0-.682,1.365,5.25,5.25,0,0,0-.171,1.621,9.449,9.449,0,0,0,.171,1.621,3.429,3.429,0,0,0,.682,1.365,2.97,2.97,0,0,0,1.109.938,2.575,2.575,0,0,0,1.621.427" transform="translate(-15.364 -2.526)" fill="#66676a"/>
        <path id="Trazado_1934" data-name="Trazado 1934" d="M123.8,20.245a2.659,2.659,0,0,0-1.024-1.791,3.638,3.638,0,0,0-2.047-.512,2.921,2.921,0,0,0-1.536.341,2.712,2.712,0,0,0-1.024.938,3.919,3.919,0,0,0-.6,1.365,5.25,5.25,0,0,0-.171,1.621,10.452,10.452,0,0,0,.171,1.621,3.329,3.329,0,0,0,.6,1.365,2.941,2.941,0,0,0,1.024,1.024,3.383,3.383,0,0,0,1.706.341,4.322,4.322,0,0,0,1.109-.171,3.522,3.522,0,0,0,.938-.6,3.34,3.34,0,0,0,.682-.853,4.285,4.285,0,0,0,.427-1.109H125a4.46,4.46,0,0,1-.512,1.365,3.519,3.519,0,0,1-.853,1.109,3.578,3.578,0,0,1-1.194.768,5.13,5.13,0,0,1-1.706.256,4.739,4.739,0,0,1-1.962-.427,4.016,4.016,0,0,1-1.28-1.109,5.658,5.658,0,0,1-.768-1.621,7.272,7.272,0,0,1-.256-1.962,6.727,6.727,0,0,1,.341-2.389,4.278,4.278,0,0,1,.938-1.621,3.13,3.13,0,0,1,1.45-.853,5.671,5.671,0,0,1,1.791-.256,6.63,6.63,0,0,1,1.365.171,4.6,4.6,0,0,1,1.109.6,4.471,4.471,0,0,1,.853.938,6.393,6.393,0,0,1,.427,1.365H123.8Z" transform="translate(-17.113 -2.511)" fill="#66676a"/>
        <rect id="Rectángulo_1301" data-name="Rectángulo 1301" width="0.938" height="9.725" transform="translate(109.589 14.919)" fill="#66676a"/>
        <path id="Trazado_1935" data-name="Trazado 1935" d="M131.665,22.307a7.272,7.272,0,0,1,.256-1.962,4.892,4.892,0,0,1,.853-1.621,3.866,3.866,0,0,1,1.45-1.109,4.739,4.739,0,0,1,1.962-.427,4.448,4.448,0,0,1,1.962.427,3.677,3.677,0,0,1,1.45,1.109,4.891,4.891,0,0,1,.853,1.621,7.465,7.465,0,0,1,.256,2.047,7.272,7.272,0,0,1-.256,1.962,4.891,4.891,0,0,1-.853,1.621,3.866,3.866,0,0,1-1.45,1.109,4.726,4.726,0,0,1-3.924,0,3.677,3.677,0,0,1-1.45-1.109,4.892,4.892,0,0,1-.853-1.621,8.414,8.414,0,0,1-.256-2.047m4.607,4.351a3.247,3.247,0,0,0,1.621-.341A4.039,4.039,0,0,0,139,25.378a6.8,6.8,0,0,0,.682-1.365,5.249,5.249,0,0,0,.171-1.621A5.671,5.671,0,0,0,139.6,20.6a5.1,5.1,0,0,0-.682-1.365,3.519,3.519,0,0,0-1.109-.853,4.075,4.075,0,0,0-1.536-.341,3.248,3.248,0,0,0-1.621.341,4.039,4.039,0,0,0-1.109.938,6.8,6.8,0,0,0-.682,1.365,5.25,5.25,0,0,0-.171,1.621,9.448,9.448,0,0,0,.171,1.621,3.429,3.429,0,0,0,.682,1.365,2.97,2.97,0,0,0,1.109.938,2.432,2.432,0,0,0,1.621.427" transform="translate(-19.346 -2.526)" fill="#66676a"/>
        <path id="Trazado_1936" data-name="Trazado 1936" d="M144.374,24.255a4.232,4.232,0,0,0,.256,1.109,2.177,2.177,0,0,0,1.45,1.194,3.413,3.413,0,0,0,2.133,0,1.649,1.649,0,0,0,.768-.427,1.857,1.857,0,0,0,.427-.682,2.491,2.491,0,0,0,.171-.768,1.72,1.72,0,0,0-.256-.938,2.3,2.3,0,0,0-.682-.6,3.056,3.056,0,0,0-.938-.341c-.341-.085-.682-.171-1.109-.256a5.518,5.518,0,0,1-1.109-.341,2.034,2.034,0,0,1-.938-.512,2.014,2.014,0,0,1-.682-.768,2.477,2.477,0,0,1-.256-1.194,3.066,3.066,0,0,1,.171-.938,3.063,3.063,0,0,1,.6-.853,2.95,2.95,0,0,1,1.024-.6,3.676,3.676,0,0,1,1.45-.256,3.985,3.985,0,0,1,1.45.256,2.95,2.95,0,0,1,1.024.6,2.209,2.209,0,0,1,.6.938,2.52,2.52,0,0,1,.171,1.109h-.853a3.067,3.067,0,0,0-.171-.938,4.732,4.732,0,0,0-.512-.682,1.533,1.533,0,0,0-.768-.341,2.9,2.9,0,0,0-.853-.085,4.447,4.447,0,0,0-1.194.171,2.978,2.978,0,0,0-.768.512,1.858,1.858,0,0,0-.427.682,1.184,1.184,0,0,0,0,.768,1.608,1.608,0,0,0,.341.768,1.65,1.65,0,0,0,.768.427,3.024,3.024,0,0,0,.938.256l1.024.256a4.809,4.809,0,0,1,1.024.341,2.562,2.562,0,0,1,.938.512,1.361,1.361,0,0,1,.6.768,2.477,2.477,0,0,1,.256,1.194,2.648,2.648,0,0,1-.938,2.133,4.07,4.07,0,0,1-2.645.768,8.4,8.4,0,0,1-1.45-.171,4.6,4.6,0,0,1-1.109-.6,2.329,2.329,0,0,1-.768-1.024,3.537,3.537,0,0,1-.256-1.365h1.109Z" transform="translate(-21.05 -2.511)" fill="#66676a"/>
      </g>
    </g>
  </g>
</svg>
