<svg xmlns="http://www.w3.org/2000/svg" xmlns:xlink="http://www.w3.org/1999/xlink" width="193" height="64" viewBox="0 0 193 64">
  <defs>
    <filter id="Rect치ngulo_44" x="0" y="0" width="193" height="64" filterUnits="userSpaceOnUse">
      <feOffset dy="3" input="SourceAlpha"/>
      <feGaussianBlur stdDeviation="3" result="blur"/>
      <feFlood flood-color="#add0fc"/>
      <feComposite operator="in" in2="blur"/>
      <feComposite in="SourceGraphic"/>
    </filter>
  </defs>
  <g id="Grupo_182" data-name="Grupo 182" transform="translate(9 6.448)">
    <g transform="matrix(1, 0, 0, 1, -9, -6.45)" filter="url(#Rect치ngulo_44)">
      <rect id="Rect치ngulo_44-2" data-name="Rect치ngulo 44" width="175" height="46" rx="10" transform="translate(9 6)" fill="#f4f8fd"/>
    </g>
    <g id="Grupo_190" data-name="Grupo 190" transform="translate(35.419 12.361)">
      <g id="Grupo_189" data-name="Grupo 189">
        <path id="Trazado_252" data-name="Trazado 252" d="M56.143,29.534l-3.526-5.123a.643.643,0,0,0-.56-.324.645.645,0,0,0-.508,1.046l2.382,3.456,0,0,.392.57a.137.137,0,0,1,.011.126.127.127,0,0,1-.107.064H47.12a1.873,1.873,0,0,1-1.015-.323,1.825,1.825,0,0,1-.467-2.536l3.942-5.731a.617.617,0,0,0,.129-.383.65.65,0,0,0-.652-.648.641.641,0,0,0-.538.3l-7.3,10.6,14.345.007a.7.7,0,0,0,.579-1.1ZM41.511,23.328a4.088,4.088,0,0,1,.742-2.352L45.9,15.664a.685.685,0,0,0,.14-.4.666.666,0,0,0-1.23-.352L34.006,30.637h5.973L42.892,26.4A4.092,4.092,0,0,1,41.511,23.328ZM36.9,19.483a4.1,4.1,0,0,1,.725-2.334l3.988-5.8s.051-.075.064-.1a.124.124,0,0,1,.1-.043.118.118,0,0,1,.1.041c.018.027.072.1.072.1l.824,1.188a.639.639,0,0,0,.527.278A.647.647,0,0,0,43.83,11.8L42.32,9.638a.647.647,0,0,0-.9-.162.878.878,0,0,0-.15.153L27.542,29.534a.706.706,0,0,0,.585,1.1l4.635,0L38.3,22.578A4.1,4.1,0,0,1,36.9,19.483Z" transform="translate(-27.419 -9.361)" fill="#00953a"/>
        <g id="Grupo_188" data-name="Grupo 188" transform="translate(35.944 6.777)">
          <path id="Trazado_253" data-name="Trazado 253" d="M69.336,20.185s-1.643,4.127-1.969,4.987h3.878c-.323-.86-1.909-4.987-1.909-4.987m7.419,10.452H74.6a1.8,1.8,0,0,1-1.657-1.108l-1.213-3.121H66.879l-1.632,4.229H63.363S67.7,20.121,69.138,16.616a.656.656,0,0,1,.578-.477c.319,0,1.213,0,1.213,0Z" transform="translate(-63.363 -16.138)" fill="#00953a"/>
          <path id="Trazado_254" data-name="Trazado 254" d="M99.146,17.771a4.368,4.368,0,0,0-2.12-.431l.015,5.731a3.817,3.817,0,0,0,2.167-.521,2.683,2.683,0,0,0,1.141-2.413,2.517,2.517,0,0,0-1.2-2.366m-2.121,6.167.008,6.7h-3.44V16.732a.583.583,0,0,1,.639-.589H98.4c.527,0,.982.019,1.363.041a9.16,9.16,0,0,1,.972.123,3.3,3.3,0,0,1,1.288.551A3.422,3.422,0,0,1,103.009,18a3.342,3.342,0,0,1,.373,1.626,3.674,3.674,0,0,1-.835,2.493,4.628,4.628,0,0,1-2.411,1.36c.671,1.188,4.459,7.162,4.459,7.162l-2.554,0a2.062,2.062,0,0,1-1.851-1.155l-2.979-5.544h-.186Z" transform="translate(-63.363 -16.138)" fill="#00953a"/>
          <path id="Trazado_255" data-name="Trazado 255" d="M77.824,16.747a.6.6,0,0,1,.646-.607c1.7,0,5.907,0,7.468,0v1.107a.643.643,0,0,1-.735.707l-3.942,0v4.256l4.589,0v1.164a.6.6,0,0,1-.668.635H81.261l0,6.622H77.826V16.747Z" transform="translate(-63.363 -16.138)" fill="#00953a"/>
          <path id="Trazado_256" data-name="Trazado 256" d="M87.592,16.84a.6.6,0,0,1,.628-.7h2.822v14.5h-3.45Z" transform="translate(-63.363 -16.138)" fill="#00953a"/>
          <path id="Trazado_257" data-name="Trazado 257" d="M106.718,30.637h-1.973l2.1-14.041a.564.564,0,0,1,.6-.456h1.162l4.832,10.119,4.886-10.119H119.6a.59.59,0,0,1,.573.456L121.9,30.637h-3.429s-.674-8.007-.836-9.656h-.047l-4.631,9.656h-.793s-3.773-7.842-4.566-9.445h-.043Z" transform="translate(-63.363 -16.138)" fill="#00953a"/>
          <path id="Trazado_258" data-name="Trazado 258" d="M123.478,16.663a.589.589,0,0,1,.642-.525h7.462v1.19a.6.6,0,0,1-.506.628h-4.222v4.26H131.5V23.31c0,.715-.556.71-.556.71l-4.093,0v4.839l4.728,0v1.168a.6.6,0,0,1-.628.609h-7.476V16.663Z" transform="translate(-63.363 -16.138)" fill="#00953a"/>
        </g>
      </g>
    </g>
  </g>
</svg>
