<svg xmlns="http://www.w3.org/2000/svg" xmlns:xlink="http://www.w3.org/1999/xlink" width="193" height="64" viewBox="0 0 193 64">
  <defs>
    <filter id="Rect치ngulo_46" x="0" y="0" width="193" height="64" filterUnits="userSpaceOnUse">
      <feOffset dy="3" input="SourceAlpha"/>
      <feGaussianBlur stdDeviation="3" result="blur"/>
      <feFlood flood-color="#add0fc"/>
      <feComposite operator="in" in2="blur"/>
      <feComposite in="SourceGraphic"/>
    </filter>
  </defs>
  <g id="Grupo_193" data-name="Grupo 193" transform="translate(9 6)">
    <g transform="matrix(1, 0, 0, 1, -9, -6)" filter="url(#Rect치ngulo_46)">
      <rect id="Rect치ngulo_46-2" data-name="Rect치ngulo 46" width="175" height="46" rx="10" transform="translate(9 6)" fill="#f4f8fd"/>
    </g>
    <g id="Grupo_185" data-name="Grupo 185" transform="translate(22.846 15.093)">
      <path id="Trazado_240" data-name="Trazado 240" d="M31.492,12.684a2.125,2.125,0,0,0-.658-.831,6.1,6.1,0,0,0-1.538-.886,17.289,17.289,0,0,0-4.55-1.133c-.946-.115-1.9-.188-2.854-.244a29.962,29.962,0,0,0-3.97.06,26.669,26.669,0,0,0-3.141.42,14.7,14.7,0,0,0-3.434,1.055,4.84,4.84,0,0,0-1.469.993,1.386,1.386,0,0,0,0,2.095,4.686,4.686,0,0,0,.858.673A9.871,9.871,0,0,0,13.4,15.953a22.087,22.087,0,0,0,2.982.582c.386.049.773.087,1.172.13q.96-2.988,1.913-5.948a.081.081,0,0,0,.025.008c.1,2.013.207,4.025.312,6.051.14.007.26.019.381.016.782-.019,1.565-.03,2.345-.067a25.072,25.072,0,0,0,3.567-.425,15.294,15.294,0,0,0,3.369-.992,4.855,4.855,0,0,0,1.687-1.117,1.365,1.365,0,0,0,.345-1.5" transform="translate(-6.671 -9.549)" fill="#ed3247"/>
      <path id="Trazado_241" data-name="Trazado 241" d="M16.252,19.309a26.279,26.279,0,0,0-4.114.4A15.858,15.858,0,0,0,8.35,20.848a5.745,5.745,0,0,0-2,1.4,1.864,1.864,0,0,0-.458,1.9,2.982,2.982,0,0,0,1.144,1.408,9.761,9.761,0,0,0,2.92,1.372,20.426,20.426,0,0,0,3.336.71c.177.023.354.042.532.058.9-2.8,1.793-5.585,2.694-8.381-.1,0-.185,0-.266,0" transform="translate(-5.793 -11.924)" fill="#ed3247"/>
      <path id="Trazado_242" data-name="Trazado 242" d="M30.5,21.312a11.968,11.968,0,0,0-3.2-1.266,22.773,22.773,0,0,0-3.3-.58c-.269-.03-.539-.047-.825-.07.145,2.8.286,5.574.429,8.361a1.379,1.379,0,0,0,.219,0c.685-.092,1.372-.171,2.051-.287a15.634,15.634,0,0,0,3.566-1.033A6.274,6.274,0,0,0,31.613,25a1.886,1.886,0,0,0,.222-2.519A4.246,4.246,0,0,0,30.5,21.312" transform="translate(-10.025 -11.946)" fill="#ed3247"/>
      <path id="Trazado_243" data-name="Trazado 243" d="M55.883,19.525a1.672,1.672,0,0,0,1.347-1.749V16.508c0-1.4-.821-2.118-2.44-2.118H45.8V24.978h8.349c2.1,0,3.164-.719,3.164-2.139V21.512a1.871,1.871,0,0,0-1.428-1.988m-7.5.952h5.4a1.676,1.676,0,0,1,.786.123.762.762,0,0,1,.271.692v.784a.759.759,0,0,1-.268.689,1.726,1.726,0,0,1-.789.126h-5.4Zm6.395-2.561c0,.158,0,.636-1,.636h-5.4V16.3h5.4c1,0,1,.478,1,.636Z" transform="translate(-15.532 -10.727)" fill="#ed3247"/>
      <path id="Trazado_244" data-name="Trazado 244" d="M71.28,14.39H68.822L62.83,24.978h2.664L66.7,22.707h6.443l1.246,2.271h2.965L71.311,14.445Zm.741,6.23H67.842l2.127-3.883Z" transform="translate(-19.678 -10.727)" fill="#ed3247"/>
      <path id="Trazado_245" data-name="Trazado 245" d="M94.219,19.945c0,.207.027.707.079,1.487-.255-.265-.586-.568-.987-.907l-7.3-6.109-.029-.026h-1.8V24.978h2.388V19.262c0-.359-.024-.8-.07-1.333a7.809,7.809,0,0,0,.655.612l7.617,6.411.031.026h1.8V14.39H94.22v5.555Z" transform="translate(-24.877 -10.727)" fill="#ed3247"/>
      <path id="Trazado_246" data-name="Trazado 246" d="M114.933,14.39H107.3a3.106,3.106,0,0,0-2.1.531,2.714,2.714,0,0,0-.578,2.029v5.467a2.712,2.712,0,0,0,.578,2.029,3.107,3.107,0,0,0,2.1.532h7.638a3.1,3.1,0,0,0,2.1-.532,2.709,2.709,0,0,0,.578-2.029V16.95a2.713,2.713,0,0,0-.577-2.029,3.11,3.11,0,0,0-2.1-.531m.051,8.421h-7.741V16.457h7.741Z" transform="translate(-29.849 -10.727)" fill="#ed3247"/>
      <path id="Trazado_247" data-name="Trazado 247" d="M134.9,21.059c1.622,0,2.443-.713,2.443-2.119V16.508c0-1.4-.821-2.118-2.443-2.118H125.9V24.978h2.59V21.059h2.139l4.151,3.89.032.03h3.806l-4.788-3.919Zm-6.405-4.683h5.317a1.673,1.673,0,0,1,.729.105.658.658,0,0,1,.251.616v1.254a.656.656,0,0,1-.247.613,1.624,1.624,0,0,1-.732.108h-5.317Z" transform="translate(-35.032 -10.727)" fill="#ed3247"/>
      <path id="Trazado_248" data-name="Trazado 248" d="M143.666,16.457h4.763v8.521h2.63V16.457h4.783V14.39H143.666Z" transform="translate(-39.355 -10.727)" fill="#ed3247"/>
      <path id="Trazado_249" data-name="Trazado 249" d="M165.138,22.811V20.456h4.918V18.47h-4.918V16.376h8.012V14.39H162.51V24.978h10.741V22.811Z" transform="translate(-43.942 -10.727)" fill="#ed3247"/>
    </g>
  </g>
</svg>
